# xmcd CD database file
# Copyright (C) 1993-1996 Ti Kan
#
# Track frame offsets:
#  150
#  17660
#  37769
#  55403
#  73323
#  90921
#  105845
#  119248
#  135165
#  151978
#  165326
#  173520
#
# Disc length: 2717 seconds
#
# Revision: 1
# Processed by: cddbd v1.5.2PL0 Copyright (c) Steve Scherf et al.
# Submitted via: Advanced CD Ripper Pro 2.0
#
DISCID=870a9b0c
DTITLE=UÐUR IÞILAK - SÝZÝN GÝBÝ DEÐÝLÝM
DYEAR=2008
DGENRE=
TTITLE0=ZAMAN ESKÝ ZAMAN DEÐÝL
TTITLE1=VATAN SAÐ OLSUN
TTITLE2=BEN ÖLÜNCE
TTITLE3=BÝR OLANA BAÐLANMIÞIM
TTITLE4=YALAN DA OLSA
TTITLE5=SÝZÝN GÝBÝ DEÐÝLÝM
TTITLE6=ERENLER
TTITLE7=BU SEN DEÐÝLSÝN
TTITLE8=GELDÝ GEÇTÝ ÖMRÜM BENÝM
TTITLE9=HA SENÝN HA BENÝM
TTITLE10=DAVET - ENSTRUMENTAL
TTITLE11=HAYDÝ ANADOLU - REMIX
EXTD=
EXTT0=
EXTT1=
EXTT2=
EXTT3=
EXTT4=
EXTT5=
EXTT6=
EXTT7=
EXTT8=
EXTT9=
EXTT10=
EXTT11=
PLAYORDER=
